<svg xmlns="http://www.w3.org/2000/svg" width="456" height="434" viewBox="0 0 456 434">
  <g id="HeroSideImage" transform="translate(-1092 -216)">
    <rect id="Rectangle_7" data-name="Rectangle 7" width="114" height="109" rx="23" transform="translate(1202 324)" fill="#fff"/>
    <rect id="Rectangle_8" data-name="Rectangle 8" width="114" height="109" rx="23" transform="translate(1316 437)" fill="#f15ed0"/>
    <rect id="Rectangle_3" data-name="Rectangle 3" width="114" height="109" rx="23" transform="translate(1210 541)" fill="#fff"/>
    <rect id="Rectangle_4" data-name="Rectangle 4" width="114" height="109" rx="23" transform="translate(1092 428)" fill="#f15ed0"/>
    <rect id="Rectangle_6" data-name="Rectangle 6" width="114" height="109" rx="23" transform="translate(1434 325)" fill="#0cf7ff"/>
    <rect id="Rectangle_5" data-name="Rectangle 5" width="114" height="109" rx="23" transform="translate(1320 216)" fill="#00a0f2"/>
    <path id="Path_6" data-name="Path 6" d="M53.785,0c28.593,0,49.843,23.179,49.843,51.772a51.772,51.772,0,0,1-51.772,51.772c-28.593,0-49.843-23.179-49.843-51.772A51.772,51.772,0,0,1,53.785,0Z" transform="translate(1205.186 436.532)" fill="#13f9ff"/>
    <path id="Path_3" data-name="Path 3" d="M53.785,0c28.593,0,49.843,23.179,49.843,51.772a51.772,51.772,0,0,1-51.772,51.772c-28.593,0-49.843-23.179-49.843-51.772A51.772,51.772,0,0,1,53.785,0Z" transform="translate(1318.186 329.532)" fill="#fdf58a"/>
  </g>
</svg>
